<svg width="3000" height="3000" viewBox="0 0 3000 3000" fill="none" xmlns="http://www.w3.org/2000/svg">
<path d="M2099.97 1557.75C2099.93 1557.57 2099.88 1557.38 2099.61 1557.2C2097.92 1555.87 2091.36 1558.77 2088.24 1559.29C2077.76 1561.03 2070.22 1553.14 2067.4 1546.71C2065.4 1542.15 2064.97 1536.21 2063.9 1529.16C2063.51 1526.34 2063.29 1522.09 2062.99 1518.27C2062.61 1513.44 2062.9 1505.63 2057.43 1504.49C2049.13 1503.04 2050.42 1517.03 2049.51 1525.66C2048.29 1538.05 2044.11 1548.61 2033.43 1552.83C2027.88 1555.03 2021.7 1555.28 2017.33 1551.83C2009.69 1545.78 2010.04 1533.96 2010.04 1520.45C2009.99 1514.22 2009.92 1507.98 2009.86 1501.75C2009.86 1496.49 2008.7 1486.02 2010.86 1482.7C2013.69 1478.35 2023.01 1480.89 2027.97 1478.69C2029.42 1478.04 2031.35 1476.74 2030.79 1474.22C2029.24 1467.15 2016.52 1472.28 2011.67 1468.56C2005.76 1464.02 2013.4 1445.84 2005.38 1442.57C2002.81 1441.51 2000.35 1443.08 1999.29 1444.48C1996.77 1447.83 1997.47 1454.96 1997.47 1460.8C1997.47 1463.12 1997.52 1465.36 1996.83 1467.01C1996.29 1468.28 1995.1 1469.4 1993.83 1469.92C1991.76 1470.78 1989.47 1470.62 1986.54 1470.66C1982.36 1470.78 1978.17 1470.91 1973.99 1471.01C1971.31 1471.01 1968.26 1471.44 1965.88 1470.83C1955.38 1468.15 1967.61 1442.33 1954.6 1442.28C1951.76 1442.65 1950.76 1443.87 1949.86 1446.38C1947.77 1452.3 1950.77 1462.25 1948.4 1467.99C1945.97 1473.86 1935.49 1469.71 1931.65 1475.47C1931.13 1476.24 1930.45 1477.51 1930.74 1479.03C1932.33 1487.35 1944.44 1481.89 1947.76 1487.24C1949.85 1490.62 1949.13 1500.55 1949.01 1505.88C1948.6 1522.61 1948.44 1534.1 1942.2 1544.33C1940.86 1546.55 1939.44 1548.86 1937.47 1550.45C1935.85 1551.76 1934.08 1553.08 1932.01 1553.92C1929.53 1554.93 1925.7 1555.25 1922.99 1554.28C1912.94 1550.74 1912.74 1532.96 1912.11 1520.02C1911.74 1513.36 1913.06 1505.51 1906.69 1504.47C1899.45 1503.29 1898.83 1515.13 1897.58 1520.79C1894.81 1533.42 1887.42 1551.99 1874.78 1554.64C1866.99 1556.27 1862.53 1550.7 1861.13 1545.09C1860.44 1542.31 1860.35 1539.49 1860.22 1535.46C1860.49 1529.68 1861.45 1522.26 1861.7 1517.68C1862.35 1508.1 1860.45 1503.17 1854.69 1504.27C1849.72 1505.22 1849.4 1510.75 1848.13 1516.51C1844.95 1532.45 1846.15 1556.82 1855.72 1564.48C1857.63 1566 1859.76 1567.41 1862.28 1568.31C1873.11 1572.14 1884.31 1565.88 1890.36 1561.28C1893.36 1559.01 1897.51 1555.36 1903.2 1556.81C1911.31 1558.88 1913.88 1566.88 1922.69 1568.67C1927.22 1569.6 1931.04 1567.56 1933.7 1565.93C1938.56 1562.96 1942.28 1559.4 1948.99 1558.27C1952.61 1557.66 1955.79 1559.4 1957.92 1560.56C1963.04 1563.34 1967.13 1567.15 1973.76 1568.31C1977.47 1568.95 1980.7 1567.34 1982.77 1566.13C1987.7 1563.23 1991.52 1559.04 1998.06 1557.91C2001.45 1557.34 2004.29 1558.97 2006.17 1560.1C2010.72 1562.87 2013.99 1566.82 2019.92 1568.22C2030.54 1570.72 2041.04 1561.17 2047.95 1558.18C2050.97 1556.88 2055.15 1556.84 2057.88 1558.45C2060.61 1560.08 2062.79 1562.39 2065.35 1564.19C2070.04 1567.5 2078.61 1569.94 2086.56 1567.93C2088.99 1567.33 2091.22 1566.41 2093.11 1565.29C2094.99 1564.23 2100.45 1560.37 2099.97 1557.75ZM1997.38 1495.1C1997.35 1498.53 1997.4 1501.95 1997.38 1505.38C1997.38 1507.98 1997.38 1509.95 1997.36 1512.72C1997.26 1518.7 1997.06 1527.16 1995.56 1533.24C1994.11 1539.15 1991.42 1543.42 1988.19 1547.47C1985.65 1550.65 1981.1 1554.91 1974.9 1553.39C1958.47 1549.36 1960.6 1527.75 1960.6 1507.42C1960.6 1501.77 1960.24 1488.76 1962.51 1485.72C1965.58 1481.61 1979.47 1482.11 1985.01 1481.69C1986.49 1481.61 1988.33 1481.71 1989.81 1481.62C1998.45 1481.55 1997.38 1487.08 1997.38 1495.1ZM2055.49 1466.36C2051.86 1466.88 2050.06 1468.53 2048.99 1472.1C2047.54 1477.29 2052.35 1483.02 2057.68 1482.07C2067.2 1480.39 2066.83 1465.86 2055.49 1466.36ZM1831.17 1515.62C1832.45 1510.59 1833.58 1501.29 1833.22 1493.97C1832.74 1486.83 1831.92 1481.18 1830.9 1477.13C1828.97 1469.42 1826.56 1462.26 1822.99 1456.15C1807.95 1430.52 1781.97 1415.48 1740.06 1416.01C1737.56 1416.07 1736.54 1416.1 1733.97 1416.37C1729.58 1416.84 1726.46 1417.34 1722.69 1417.84C1710.05 1420.08 1695.78 1422.54 1684.19 1427.05C1680.24 1428.59 1676.3 1429.79 1672.81 1431.71C1671.67 1432.33 1669.53 1433.46 1669.9 1435.44C1670.51 1438.72 1675.69 1437.27 1678.19 1436.63C1685.26 1434.82 1695.22 1431.06 1695.58 1440.45C1696.19 1457.02 1696.8 1473.59 1697.4 1490.16C1697.53 1495.11 1697.65 1500.07 1697.76 1505.03C1697.88 1511.52 1698.01 1518.03 1698.12 1524.55C1698.12 1526.5 1698.12 1528.45 1698.12 1530.38C1698.24 1538 1697.69 1548.83 1703.21 1551.17C1706.33 1552.49 1708.19 1549.67 1709.03 1547.7C1710.97 1543.17 1711.38 1539.16 1711.87 1531.58C1711.92 1529.84 1711.97 1528 1712.03 1526.26C1712.15 1520.65 1712.28 1515.01 1712.38 1509.39C1712.56 1497.74 1712.74 1486.1 1712.94 1474.47C1712.99 1468.63 1713.06 1462.78 1713.12 1456.95C1713.12 1455.43 1713.12 1453.91 1713.12 1452.39C1713.15 1448.83 1713.1 1445.23 1713.12 1441.67C1713.12 1439.31 1713.01 1436.82 1713.47 1434.78C1713.92 1432.83 1714.9 1431.31 1716.38 1430.4C1719.97 1428.22 1734.83 1427.45 1742.21 1428.18C1747.53 1428.81 1751.4 1429.54 1755.81 1430.67C1771.71 1434.73 1785.31 1442.19 1794.13 1453.37C1798.97 1459.51 1803.17 1466.47 1805.78 1474.81C1807.26 1479.51 1808.37 1483.56 1808.9 1488.6C1810.4 1501.77 1808.15 1516.73 1804.97 1524.98C1794.81 1551.2 1775.37 1563.51 1745.53 1570.03C1740.28 1571.19 1734.65 1571.51 1730.87 1571.76C1728.71 1571.82 1726.56 1571.89 1724.4 1571.94C1722.1 1571.94 1719.79 1571.94 1717.49 1571.94C1714.71 1571.82 1712.21 1571.83 1709.12 1571.57C1702.51 1571.08 1691.76 1569.69 1685.35 1568.72C1682.78 1568.38 1678.35 1567.34 1677.17 1568.18C1676.99 1568.33 1676.81 1568.54 1676.9 1568.92C1677.13 1570.38 1681.3 1571.74 1683.56 1572.62C1689.83 1575.07 1696.6 1576.34 1703.85 1577.94C1741.12 1585.59 1778.83 1575.11 1799.88 1560.24C1814.85 1549.72 1825.95 1536.09 1831.17 1515.62ZM1613.92 1538.05C1618.71 1522.43 1608.14 1510.21 1597.81 1506.14C1590.06 1503.06 1576.89 1502.86 1569.14 1506.05C1567.62 1506.67 1562.33 1509.02 1563.58 1511.34C1564.19 1512.54 1566.56 1512.22 1567.96 1511.9C1571.8 1511 1577.05 1509.84 1581.89 1510.72C1593.19 1512.76 1603.22 1520.73 1598.81 1535.16C1598.15 1537.32 1597.14 1539.45 1595.99 1541.17C1591.37 1548.13 1576.92 1556.38 1564.14 1552.56C1556.44 1550.27 1550.44 1545.26 1548.12 1537.61C1546.39 1531.94 1546.48 1522.52 1547.48 1515.99C1548.24 1512.02 1547.08 1509.09 1544.01 1509.79C1539.96 1510.72 1537.98 1522.11 1536.37 1526.21C1532.3 1536.55 1526.4 1547.54 1514.15 1549.56C1508.55 1550.49 1505.67 1544.87 1504.23 1541.35C1500.96 1533.38 1499.89 1523.29 1497.76 1514.17C1496.65 1509.43 1496.28 1504.33 1491.48 1503.31C1487.69 1502.5 1484.8 1505.04 1483.28 1506.96C1478.94 1512.45 1476.46 1519.89 1472.26 1525.57C1470.67 1527.71 1467.89 1531.13 1463.53 1530.31C1455.94 1528.88 1454.51 1518.27 1451.98 1511.7C1450.92 1508.96 1449.12 1503.15 1444.87 1503.95C1437.4 1505.37 1434.92 1520.61 1431.67 1527.03C1430.24 1529.84 1427.33 1534.33 1422.48 1532.33C1413.74 1528.7 1418.74 1506.82 1409.1 1504.51C1403.26 1503.11 1399.69 1510.32 1397.73 1514.28C1394.05 1522.02 1390.23 1531.2 1385.35 1538.54C1383.24 1541.69 1380.66 1545.23 1376.24 1546.02C1371.05 1546.93 1368.92 1541.9 1367.6 1538.72C1364.82 1532.02 1363.73 1524.01 1362.23 1515.92C1361.32 1510.97 1361.69 1506.19 1358.14 1503.97C1352.96 1500.75 1349.08 1506.71 1346.3 1508.89C1340.32 1513.6 1333.71 1517.3 1326.91 1521.29C1324.94 1522.45 1321.05 1525.26 1317.71 1524.67C1313.83 1523.97 1311.73 1521.06 1309.16 1519.02C1304.28 1515.15 1299.78 1510.91 1295.32 1506.62C1292.82 1504.2 1289.73 1499.48 1285.67 1499.69C1284.5 1499.87 1283.83 1500.12 1283.03 1500.61C1279.98 1502.49 1278.67 1506.87 1276.75 1509.91C1273.73 1514.69 1264.16 1525.05 1258 1526.16C1253.94 1526.87 1250.8 1522.69 1248.98 1520.86C1242.96 1514.83 1237.82 1509.02 1229.76 1504.9C1226.84 1503.4 1220.96 1500.75 1217.01 1503.17C1213.85 1505.1 1213.85 1514.26 1212.46 1518.21C1208.62 1529.2 1202.57 1541.19 1194.35 1547.77C1191.37 1550.15 1187.01 1554.09 1180.98 1552.6C1170.59 1550.04 1168.32 1537.45 1165.78 1526.16C1164.59 1520.59 1164.14 1511.13 1159.76 1510.11C1156.18 1509.27 1155.48 1512.93 1155.03 1515.49C1154.51 1518.48 1154.69 1520.91 1154.76 1525.33C1154.71 1527.19 1154.64 1529.04 1154.59 1530.9C1154.3 1535.5 1153.84 1537.95 1152.59 1540.85C1148.89 1549.43 1135.85 1558.63 1122.03 1556.52C1118.89 1556.04 1116.5 1555.59 1113.98 1554.62C1106.34 1551.63 1101.89 1545.8 1100.41 1536.57C1099.94 1533.64 1100.73 1530.59 1101.41 1528.64C1104.84 1518.78 1114.64 1514.88 1125.16 1514.6C1129.1 1513.97 1140.93 1515.76 1142.26 1513.04C1143.26 1510.57 1138.68 1508.57 1137.26 1507.83C1131.28 1504.79 1120.78 1502.79 1112.14 1504.83C1100.34 1507.6 1090.8 1514.4 1086.37 1524.53C1080.71 1537.52 1088.73 1553.03 1096.21 1559.01C1105.6 1566.5 1120.96 1570.55 1136.62 1565.84C1144.46 1563.48 1150.37 1559.17 1158.75 1557.72C1160.89 1557.34 1163.21 1557.91 1164.66 1558.36C1172.34 1560.69 1179.51 1569.97 1190.05 1566.75C1193.46 1565.72 1196.51 1563.98 1199.16 1562.1C1206.09 1557.18 1211.84 1550.06 1215.46 1541.85C1217.71 1536.71 1219.57 1530.25 1222.48 1525.62C1224.19 1522.86 1227.96 1521.13 1231.67 1523.24C1233.23 1524.13 1234.69 1525.23 1235.96 1526.42C1237.16 1527.55 1238.51 1528.68 1239.25 1530.25C1240.19 1532.31 1239.64 1534.65 1238.51 1536.09C1237.3 1537.64 1235.19 1538.64 1233.6 1539.83C1230.62 1542.01 1227.64 1544.71 1225.41 1547.66C1220.25 1554.53 1221.19 1561.1 1228.23 1565.27C1239.17 1571.74 1265.33 1572.89 1268.64 1559.06C1269.87 1553.92 1267.39 1548.77 1265.91 1545.37C1265.16 1543.67 1263.51 1541.29 1264.26 1538.54C1265.07 1535.62 1267.78 1534.14 1269.91 1532.53C1274.42 1528.75 1278.94 1524.99 1283.48 1521.22C1285.48 1519.66 1288.03 1519.34 1290.5 1520.31C1292.55 1521.11 1294.08 1522.52 1295.69 1523.78C1297.53 1525.21 1302.12 1528.52 1301.33 1532.26C1300.82 1534.74 1298.64 1536 1296.87 1537.27C1292.07 1540.7 1279.01 1551.26 1286.23 1559.52C1287.55 1561.05 1289.37 1562.32 1291.14 1563.35C1294.41 1565.27 1298.44 1566.52 1302.6 1567.45C1315.32 1570.3 1329.48 1566.95 1332.01 1556.97C1334.48 1547.25 1322.1 1539.75 1331.57 1533.53C1333.21 1532.69 1334.83 1531.83 1336.48 1530.97C1338.57 1530.04 1341.28 1528.2 1344.76 1528.88C1350.85 1530.04 1351.37 1536.8 1353.41 1542.01C1356.6 1550.15 1362.05 1564.09 1370.33 1566.63C1374.66 1567.95 1378.28 1565.34 1380.53 1563.62C1387.07 1558.61 1391.49 1550.95 1396.37 1544.28C1398.03 1542.03 1401.49 1536.55 1405.83 1537.36C1413.01 1538.68 1413.62 1553.14 1415.76 1559.97C1416.65 1562.82 1417.67 1566.13 1420.58 1566.9C1424.6 1567.97 1427.39 1561.94 1428.49 1559.42C1431.69 1552.14 1435.85 1535.85 1443.33 1533.78C1446.74 1532.83 1449.17 1534.99 1450.44 1536.87C1454.33 1542.71 1453.23 1554.16 1455.73 1561.22C1456.65 1563.87 1458.69 1568.02 1462.92 1567.15C1467.71 1566.16 1468.89 1559.38 1470.3 1554.93C1472.71 1547.25 1475.3 1537.98 1483.05 1535.67C1488.71 1533.99 1490.8 1539.24 1492.15 1542.69C1495.46 1551.19 1496.89 1563.16 1505.17 1566.59C1509.28 1568.29 1514.64 1566.77 1517.64 1565.21C1524.92 1561.49 1528.9 1554.75 1538.3 1553.17C1540.94 1552.73 1543.37 1553.92 1544.94 1554.73C1549.51 1557.06 1553.1 1560.45 1557.49 1563.03C1569.9 1570.3 1586.8 1566.97 1596.9 1560.2C1604.47 1555.16 1610.97 1547.68 1613.92 1538.05ZM1249.17 1560.94C1243.19 1562.62 1233.55 1559.1 1235.16 1552.82C1236.37 1548.06 1242.67 1545.21 1245.35 1545.16C1253.83 1545.21 1258 1558.47 1249.17 1560.94ZM1317 1555.57C1315.92 1557.91 1313.25 1559.15 1310.35 1559.67C1304.44 1560.76 1295.75 1556.5 1298.25 1550.36C1299.89 1546.3 1305.94 1543.9 1308.08 1543.8C1309.67 1543.48 1310.69 1543.78 1311.64 1544.16C1314.8 1545.46 1319.16 1550.81 1317 1555.57ZM1358.96 1466.36C1355.33 1466.88 1353.53 1468.53 1352.46 1472.1C1351.01 1477.29 1355.82 1483.02 1361.16 1482.07C1370.69 1480.39 1370.3 1465.86 1358.96 1466.36ZM1067.44 1562.62C1067.19 1558.49 1066.96 1554.35 1066.71 1550.22C1066.55 1547.09 1066.41 1543.96 1066.25 1540.83C1064.3 1508.85 1062.37 1483.52 1060.43 1451.55C1058.6 1432.26 1056.98 1424.46 1054.28 1421.22C1051.57 1417.66 1047.53 1417.28 1038.09 1417.84C1035.23 1418.04 1032.46 1418.21 1030.53 1419.75C1026.87 1422.47 1022.48 1437.34 1020.12 1443.42C1012.62 1464.25 1005.25 1485.13 997.766 1505.96C994.623 1514.04 992.07 1522.33 988.837 1530.22C987.355 1533.83 985.891 1538.18 981.641 1538.97C977.927 1539.65 976.284 1536.32 975.355 1534.05C973.73 1526.71 972.391 1518.84 970.713 1509.96C967.338 1489.62 963.98 1469.28 960.606 1448.95C959.427 1441.8 957.231 1428.09 954.32 1425.6C951.945 1422.88 941.141 1421.78 935.481 1423.51C927.32 1426.02 927.088 1440.33 924.284 1450.69C918.945 1477.38 902.106 1559.81 900.338 1567.5C899.535 1571.17 900.16 1575.27 902.249 1576.9C904.892 1578.94 909.677 1578.53 912.088 1576.63C915.499 1574.02 916.57 1564.95 917.874 1558.54C922.249 1536.19 927.124 1506.82 930.909 1484.79C932.624 1477.03 933.249 1466.2 939.588 1466.65C945.981 1466.97 946.249 1478.08 948.963 1491.37C949.427 1494.26 954.856 1522.26 957.784 1537.71C959.588 1546.7 960.659 1554.57 963.748 1560.97C966.748 1566.81 974.498 1571.14 982.355 1567.9C990.998 1564.34 993.623 1552.69 997.105 1543.9C1005.32 1522.51 1013.55 1501.09 1021.77 1479.69C1024.55 1472.27 1027.35 1464.86 1030.14 1457.43C1031.16 1455 1032.75 1451.42 1036.6 1451.51C1043.71 1450.89 1044.41 1465.56 1045.66 1484.02C1046.62 1511.47 1047.6 1532.26 1048.57 1559.7C1049.05 1572.14 1047.52 1583.62 1058.77 1583.79C1060.03 1583.8 1061.05 1583.73 1062.05 1583.43C1068.77 1581.3 1068 1572.21 1067.44 1562.62Z" fill="white"/>
</svg>
