<svg width="1000" height="421" viewBox="0 0 1000 421" fill="none" xmlns="http://www.w3.org/2000/svg">
<path d="M948.708 408.179L800.551 0.26917L800.449 0H797.525L767.016 83.8245L711.473 236.428L711.343 236.307C692.093 219.321 664.934 208.703 630.73 204.749L620.298 203.672L630.647 202.345C687.053 192.209 724.969 156.585 724.969 113.666C724.969 54.8095 669.612 13.7279 590.317 13.7279H425.332V16.7074H473.273V320.828L356.841 0.26917L356.739 0H353.815L323.306 83.8245L205.63 407.13L204.906 407.214C202.895 407.462 200.906 407.659 198.938 407.808C195.977 408.04 193.035 408.179 190.083 408.179H71.1826L297.196 16.7073L298.876 13.765H22.4528V134.865H25.3859C25.9057 75.8792 60.2579 16.7073 136.156 16.7073H227.721L0 411.112H306.784V295.089H303.851C303.452 346.501 274.307 395.333 210.93 406.36L208.916 406.703L257.182 274.038H392.391L441.111 408.179H393.05V411.112H581.685V408.179H533.419V205.835H589.111C645.786 205.835 678.291 231.155 678.291 275.281V311.174C678.291 315.129 678.56 320.911 678.857 325.747V325.923L648.923 408.161H609.818V411.094H690.766V408.161H652.079L679.34 333.275C679.395 333.999 679.423 334.435 679.423 334.435L680.175 341.183L680.899 345.647C685.447 373.261 696.01 393.56 712.281 405.979L714.62 407.678C726.983 416.273 742.345 420.626 760.305 420.626C784.095 420.626 799.957 414.695 813.054 400.735L811.337 399.12C799.27 410.258 789.144 414.769 776.456 414.769C754.838 414.769 743.524 388.548 743.524 362.689V312.4C743.639 299.921 741.685 287.51 737.741 275.671L737.203 274.112V274.056H836.101L884.821 408.198H836.76V411.131H1000V408.198L948.708 408.179ZM258.259 271.105L324.865 88.1127L391.323 271.105H258.259ZM533.447 202.892V16.7073H575.958C632.745 16.7073 662.725 50.4655 662.725 114.297C662.725 182.184 645.516 202.892 589.111 202.892H533.447ZM736.052 271.105L735.764 270.381C731.369 259.677 724.971 249.91 716.912 241.607L714.128 238.822L713.831 238.544L768.538 88.1127L834.996 271.105H736.052Z" fill="white"/>
</svg>
